D:\school\WTK\thesis\model\3dpredictsim\Results\PredSim_adaptations\Pog_s1_tmt_bCst_d02_k800_ig24_pas_GRF.mot
nRows=22
nColumns=19

name D:\school\WTK\thesis\model\3dpredictsim\Results\PredSim_adaptations\Pog_s1_tmt_bCst_d02_k800_ig24_pas_GRF.mot
datacolumns 19
datarows 22
range 0.5537722583 0.7863566067
endheader
time 	ground_force_vx	ground_force_vy	ground_force_vz	ground_force_px	ground_force_py	ground_force_pz	1_ground_force_vx	1_ground_force_vy	1_ground_force_vz	1_ground_force_px	1_ground_force_py	1_ground_force_pz	ground_torque_x	ground_torque_y	ground_torque_z	1_ground_torque_x	1_ground_torque_y	1_ground_torque_z
        0.5537722583	       94.6529080118	      471.7134649793	        5.0091514440	        0.3721507450	        0.0000000000	        0.0348190356	      -97.5852758786	       91.3601198193	      -43.1594702217	        0.8610092376	        0.0000000000	       -0.0377012612	        0.0000000000	        0.0000000000	        0.0000000000	        0.0000000000	        0.0000000000	        0.0000000000	
        0.5648477034	       76.3511863963	      388.3002174341	       10.3944713925	        0.3762553418	        0.0000000000	        0.0336164889	      -91.0525837169	      192.0967133754	      -77.2172284603	        0.8671297367	        0.0000000000	       -0.0358908614	        0.0000000000	        0.0000000000	        0.0000000000	        0.0000000000	        0.0000000000	        0.0000000000	
        0.5759231486	       55.9567872214	      300.6984307540	        7.7083556780	        0.3826265011	        0.0000000000	        0.0311186544	      -46.9877109650	      349.2118170948	      -17.3380043875	        0.8710948459	        0.0000000000	       -0.0340788757	        0.0000000000	        0.0000000000	        0.0000000000	        0.0000000000	        0.0000000000	        0.0000000000	
        0.5869985938	       27.7168601625	      199.0124849011	        6.1594341194	        0.3950304421	        0.0000000000	        0.0255171315	      -50.1355827244	      513.3952935198	        1.7680378160	        0.8761017988	        0.0000000000	       -0.0349333358	        0.0000000000	        0.0000000000	        0.0000000000	        0.0000000000	        0.0000000000	        0.0000000000	
        0.5980740389	        8.1674902840	      138.0446692087	       10.5090202278	        0.4081661559	        0.0000000000	        0.0187426377	      -84.5654777114	      690.8745407471	        9.2093472319	        0.8841544682	        0.0000000000	       -0.0373831844	        0.0000000000	        0.0000000000	        0.0000000000	        0.0000000000	        0.0000000000	        0.0000000000	
        0.6091494841	        1.6611566504	      108.6412142139	       11.6824244694	        0.4080471549	        0.0000000000	        0.0190469744	     -106.8220677939	      803.5178614375	       12.4982891276	        0.8898277760	        0.0000000000	       -0.0390075122	        0.0000000000	        0.0000000000	        0.0000000000	        0.0000000000	        0.0000000000	        0.0000000000	
        0.6202249293	       -2.1351544145	       71.1634144529	       10.7589402975	        0.4085347375	        0.0000000000	        0.0191008597	     -111.4736628169	      844.3604257481	       13.5566145850	        0.8937334449	        0.0000000000	       -0.0399900684	        0.0000000000	        0.0000000000	        0.0000000000	        0.0000000000	        0.0000000000	        0.0000000000	
        0.6313003744	       -8.0632127200	       29.4711210497	        5.7580794931	        0.4082230242	        0.0000000000	        0.0189148641	     -106.7592073691	      840.8488296610	       13.7966578393	        0.8967920486	        0.0000000000	       -0.0405733698	        0.0000000000	        0.0000000000	        0.0000000000	        0.0000000000	        0.0000000000	        0.0000000000	
        0.6423758196	        0.0965760258	       -0.0960824784	       -0.0022613093	        0.0000000000	        0.0000000000	        0.0000000000	      -97.3772300079	      822.1400407278	       14.1312844501	        0.8998546366	        0.0000000000	       -0.0408821773	        0.0000000000	        0.0000000000	        0.0000000000	        0.0000000000	        0.0000000000	        0.0000000000	
        0.6534512648	        0.0001046422	       -0.0000853967	        0.0000058796	        0.0000000000	        0.0000000000	        0.0000000000	      -85.2380028466	      792.8490909759	       14.8952680516	        0.9030817025	        0.0000000000	       -0.0410165333	        0.0000000000	        0.0000000000	        0.0000000000	        0.0000000000	        0.0000000000	        0.0000000000	
        0.6645267099	        0.0000396940	       -0.0000281642	        0.0000029332	        0.0000000000	        0.0000000000	        0.0000000000	      -73.5311973109	      758.3264132341	       15.1724115787	        0.9066646925	        0.0000000000	       -0.0410744732	        0.0000000000	        0.0000000000	        0.0000000000	        0.0000000000	        0.0000000000	        0.0000000000	
        0.6756021551	        0.0003770968	       -0.0002397412	        0.0000310913	        0.0000000000	        0.0000000000	        0.0000000000	      -63.8960263466	      727.2008026650	       15.2860643485	        0.9109552028	        0.0000000000	       -0.0410086662	        0.0000000000	        0.0000000000	        0.0000000000	        0.0000000000	        0.0000000000	        0.0000000000	
        0.6866776003	        0.0051868623	       -0.0030204002	        0.0004529437	        0.0000000000	        0.0000000000	        0.0000000000	      -54.5187649504	      697.2114071674	       15.8319949455	        0.9153743202	        0.0000000000	       -0.0409114970	        0.0000000000	        0.0000000000	        0.0000000000	        0.0000000000	        0.0000000000	        0.0000000000	
        0.6977530454	       -0.0250743231	        0.0135683645	       -0.0022766414	        0.0000000000	        0.0000000000	        0.0000000000	      -45.2644211263	      668.2869363830	       16.3403364238	        0.9196947744	        0.0000000000	       -0.0408676610	        0.0000000000	        0.0000000000	        0.0000000000	        0.0000000000	        0.0000000000	        0.0000000000	
        0.7088284906	       -0.0175697772	        0.0089347922	       -0.0016447097	        0.0000000000	        0.0000000000	        0.0000000000	      -37.2879368560	      642.7434268983	       16.8364555488	        0.9240638220	        0.0000000000	       -0.0408756050	        0.0000000000	        0.0000000000	        0.0000000000	        0.0000000000	        0.0000000000	        0.0000000000	
        0.7199039358	       -0.0123760223	        0.0059685633	       -0.0011879736	        0.0000000000	        0.0000000000	        0.0000000000	      -30.6913945500	      621.5797737999	       17.4507759575	        0.9284468479	        0.0000000000	       -0.0409112240	        0.0000000000	        0.0000000000	        0.0000000000	        0.0000000000	        0.0000000000	        0.0000000000	
        0.7309793809	       -0.0113062520	        0.0052111869	       -0.0011040089	        0.0000000000	        0.0000000000	        0.0000000000	      -25.0620033796	      604.9273013614	       17.9523700815	        0.9329508787	        0.0000000000	       -0.0409606929	        0.0000000000	        0.0000000000	        0.0000000000	        0.0000000000	        0.0000000000	        0.0000000000	
        0.7420548261	       -0.0138792848	        0.0061499399	       -0.0013730601	        0.0000000000	        0.0000000000	        0.0000000000	      -20.5856650215	      593.0012091856	       18.2757054915	        0.9377896859	        0.0000000000	       -0.0409966285	        0.0000000000	        0.0000000000	        0.0000000000	        0.0000000000	        0.0000000000	        0.0000000000	
        0.7531302712	       -0.0220316643	        0.0094318349	       -0.0021911252	        0.0000000000	        0.0000000000	        0.0000000000	      -17.3997048333	      585.3944525094	       18.2718312080	        0.9429419121	        0.0000000000	       -0.0409993117	        0.0000000000	        0.0000000000	        0.0000000000	        0.0000000000	        0.0000000000	        0.0000000000	
        0.7642057164	       -0.0420568346	        0.0174724806	       -0.0041759280	        0.0000000000	        0.0000000000	        0.0000000000	      -15.5062736911	      581.7490096825	       18.2453618473	        0.9484355198	        0.0000000000	       -0.0409486620	        0.0000000000	        0.0000000000	        0.0000000000	        0.0000000000	        0.0000000000	        0.0000000000	
        0.7752811616	       -0.0886790841	        0.0359000632	       -0.0087512164	        0.0000000000	        0.0000000000	        0.0000000000	      -14.4676253371	      580.7830360900	       18.1684321468	        0.9541392444	        0.0000000000	       -0.0408469416	        0.0000000000	        0.0000000000	        0.0000000000	        0.0000000000	        0.0000000000	        0.0000000000	
        0.7863566067	       -0.1901041447	        0.0752789164	       -0.0185677952	        0.0000000000	        0.0000000000	        0.0000000000	      -13.4452267612	      581.1499969169	       18.0715173365	        0.9599672201	        0.0000000000	       -0.0407028383	        0.0000000000	        0.0000000000	        0.0000000000	        0.0000000000	        0.0000000000	        0.0000000000	
